<svg xmlns="http://www.w3.org/2000/svg" height="1121.3" width="793.3"><defs><clipPath id="a" clipPathUnits="userSpaceOnUse"><path d="M36 805h523V40.3H36z"/></clipPath><clipPath id="b" clipPathUnits="userSpaceOnUse"><path d="M200 798.5h23.5v-40H200z"/></clipPath><clipPath id="c" clipPathUnits="userSpaceOnUse"><path d="M36 805h523V40.3H36z"/></clipPath><clipPath id="d" clipPathUnits="userSpaceOnUse"><path d="M50.5 761.5h29v-26h-29z"/></clipPath><clipPath id="e" clipPathUnits="userSpaceOnUse"><path d="M36 805h523V40.3H36z"/></clipPath><clipPath id="f" clipPathUnits="userSpaceOnUse"><path d="M96 761.5h32v-26H96z"/></clipPath><clipPath id="g" clipPathUnits="userSpaceOnUse"><path d="M36 805h523V40.3H36z"/></clipPath><clipPath id="h" clipPathUnits="userSpaceOnUse"><path d="M148 761.5h21.5v-26H148z"/></clipPath><clipPath id="i" clipPathUnits="userSpaceOnUse"><path d="M36 805h523V40.3H36z"/></clipPath><clipPath id="j" clipPathUnits="userSpaceOnUse"><path d="M196.5 761.5H216v-26h-19.5z"/></clipPath><clipPath id="k" clipPathUnits="userSpaceOnUse"><path d="M36 805h523V40.3H36z"/></clipPath><clipPath id="l" clipPathUnits="userSpaceOnUse"><path d="M57 739.5h16v-26H57z"/></clipPath><clipPath id="m" clipPathUnits="userSpaceOnUse"><path d="M36 805h523V40.3H36z"/></clipPath><clipPath id="n" clipPathUnits="userSpaceOnUse"><path d="M104 739.5h16v-26h-16z"/></clipPath><clipPath id="o" clipPathUnits="userSpaceOnUse"><path d="M36 805h523V40.3H36z"/></clipPath><clipPath id="p" clipPathUnits="userSpaceOnUse"><path d="M151 739.5h16v-26h-16z"/></clipPath><clipPath id="q" clipPathUnits="userSpaceOnUse"><path d="M36 805h523V40.3H36z"/></clipPath><clipPath id="r" clipPathUnits="userSpaceOnUse"><path d="M198.5 739.5h15v-26h-15z"/></clipPath><clipPath id="s" clipPathUnits="userSpaceOnUse"><path d="M36 805h523V40.3H36z"/></clipPath><clipPath id="t" clipPathUnits="userSpaceOnUse"><path d="M57 717h16v-26H57z"/></clipPath><clipPath id="u" clipPathUnits="userSpaceOnUse"><path d="M36 805h523V40.3H36z"/></clipPath><clipPath id="v" clipPathUnits="userSpaceOnUse"><path d="M104 717h16v-26h-16z"/></clipPath><clipPath id="w" clipPathUnits="userSpaceOnUse"><path d="M36 805h523V40.3H36z"/></clipPath><clipPath id="x" clipPathUnits="userSpaceOnUse"><path d="M151 717h16v-26h-16z"/></clipPath><clipPath id="y" clipPathUnits="userSpaceOnUse"><path d="M36 805h523V40.3H36z"/></clipPath><clipPath id="z" clipPathUnits="userSpaceOnUse"><path d="M200.5 717h11v-26h-11z"/></clipPath><clipPath id="A" clipPathUnits="userSpaceOnUse"><path d="M36 805h523V40.3H36z"/></clipPath><clipPath id="B" clipPathUnits="userSpaceOnUse"><path d="M57 695h16v-26H57z"/></clipPath><clipPath id="C" clipPathUnits="userSpaceOnUse"><path d="M36 805h523V40.3H36z"/></clipPath><clipPath id="D" clipPathUnits="userSpaceOnUse"><path d="M104 695h16v-26h-16z"/></clipPath><clipPath id="E" clipPathUnits="userSpaceOnUse"><path d="M36 805h523V40.3H36z"/></clipPath><clipPath id="F" clipPathUnits="userSpaceOnUse"><path d="M151 695h16v-26h-16z"/></clipPath><clipPath id="G" clipPathUnits="userSpaceOnUse"><path d="M36 805h523V40.3H36z"/></clipPath><clipPath id="H" clipPathUnits="userSpaceOnUse"><path d="M196.5 695H216v-26h-19.5z"/></clipPath><clipPath id="I" clipPathUnits="userSpaceOnUse"><path d="M36 805h523V40.3H36z"/></clipPath><clipPath id="J" clipPathUnits="userSpaceOnUse"><path d="M80.5 672.5h16v-26h-16z"/></clipPath><clipPath id="K" clipPathUnits="userSpaceOnUse"><path d="M36 805h523V40.3H36z"/></clipPath><clipPath id="L" clipPathUnits="userSpaceOnUse"><path d="M153.5 672.5H164v-26h-10.5z"/></clipPath><clipPath id="M" clipPathUnits="userSpaceOnUse"><path d="M36 805h523V40.3H36z"/></clipPath><clipPath id="N" clipPathUnits="userSpaceOnUse"><path d="M196.5 672.5H216v-26h-19.5z"/></clipPath></defs><g clip-path="url(#a)" transform="matrix(1.33333 0 0 -1.33333 0 1121.3)"><path d="M36 805h523V40.3H36z" fill="#fff"/><path d="M42 799h187.5v-39.6H42z" fill="#fff"/><g clip-path="url(#b)"><text style="-inkscape-font-specification:DejaVuSerif" transform="matrix(1 0 0 -1 202 768.4)" font-weight="400" font-size="30" font-family="DejaVu Serif"><tspan y="0" x="0">0</tspan></text></g></g><g clip-path="url(#c)" transform="matrix(1.33333 0 0 -1.33333 0 1121.3)"><path d="M42 759.4h187.5V648.1H42z" fill="#fff"/><path d="M42 759.4h46.1v-21.5H42z" fill="#e0e0e0"/><g clip-path="url(#d)"><text style="-inkscape-font-specification:DejaVuSans" transform="matrix(1 0 0 -1 52.8 742.4)" font-weight="400" font-size="18" font-family="DejaVu Sans"><tspan y="0" x="0 12.006">AC</tspan></text></g></g><g clip-path="url(#e)" transform="matrix(1.33333 0 0 -1.33333 0 1121.3)"><path d="M88.9 759.4H135v-21.5H88.9z" fill="#e0e0e0"/><g clip-path="url(#f)"><text style="-inkscape-font-specification:DejaVuSans" transform="matrix(1 0 0 -1 98.1 742.4)" font-weight="400" font-size="18" font-family="DejaVu Sans"><tspan y="0" x="0 15.066 21.114">+/-</tspan></text></g></g><g clip-path="url(#g)" transform="matrix(1.33333 0 0 -1.33333 0 1121.3)"><path d="M135.8 759.4h46v-21.5h-46z" fill="#e0e0e0"/><g clip-path="url(#h)"><text style="-inkscape-font-specification:DejaVuSans" transform="matrix(1 0 0 -1 150.3 742.4)" font-weight="400" font-size="18" font-family="DejaVu Sans"><tspan y="0" x="0">%</tspan></text></g></g><g clip-path="url(#i)" transform="matrix(1.33333 0 0 -1.33333 0 1121.3)"><path d="M182.6 759.4h46.9v-21.5h-46.9z" fill="#f5923e"/><g clip-path="url(#j)"><text style="-inkscape-font-specification:DejaVuSans" transform="matrix(1 0 0 -1 198.5 742.4)" font-weight="400" font-size="18" font-family="DejaVu Sans"><tspan y="0" x="0">รท</tspan></text></g></g><g clip-path="url(#k)" transform="matrix(1.33333 0 0 -1.33333 0 1121.3)"><path d="M42 737.1h46.1v-21.5H42z" fill="#e0e0e0"/><g clip-path="url(#l)"><text style="-inkscape-font-specification:DejaVuSans" transform="matrix(1 0 0 -1 59.3 720.1)" font-weight="400" font-size="18" font-family="DejaVu Sans"><tspan y="0" x="0">7</tspan></text></g></g><g clip-path="url(#m)" transform="matrix(1.33333 0 0 -1.33333 0 1121.3)"><path d="M88.9 737.1H135v-21.5H88.9z" fill="#e0e0e0"/><g clip-path="url(#n)"><text style="-inkscape-font-specification:DejaVuSans" transform="matrix(1 0 0 -1 106.2 720.1)" font-weight="400" font-size="18" font-family="DejaVu Sans"><tspan y="0" x="0">8</tspan></text></g></g><g clip-path="url(#o)" transform="matrix(1.33333 0 0 -1.33333 0 1121.3)"><path d="M135.8 737.1h46v-21.5h-46z" fill="#e0e0e0"/><g clip-path="url(#p)"><text style="-inkscape-font-specification:DejaVuSans" transform="matrix(1 0 0 -1 153 720.1)" font-weight="400" font-size="18" font-family="DejaVu Sans"><tspan y="0" x="0">9</tspan></text></g></g><g clip-path="url(#q)" transform="matrix(1.33333 0 0 -1.33333 0 1121.3)"><path d="M182.6 737.1h46.9v-21.5h-46.9z" fill="#f5923e"/><g clip-path="url(#r)"><text style="-inkscape-font-specification:DejaVuSans" transform="matrix(1 0 0 -1 200.7 720.1)" font-weight="400" font-size="18" font-family="DejaVu Sans"><tspan y="0" x="0">x</tspan></text></g></g><g clip-path="url(#s)" transform="matrix(1.33333 0 0 -1.33333 0 1121.3)"><path d="M42 714.9h46.1v-21.5H42z" fill="#e0e0e0"/><g clip-path="url(#t)"><text style="-inkscape-font-specification:DejaVuSans" transform="matrix(1 0 0 -1 59.3 697.9)" font-weight="400" font-size="18" font-family="DejaVu Sans"><tspan y="0" x="0">4</tspan></text></g></g><g clip-path="url(#u)" transform="matrix(1.33333 0 0 -1.33333 0 1121.3)"><path d="M88.9 714.9H135v-21.5H88.9z" fill="#e0e0e0"/><g clip-path="url(#v)"><text style="-inkscape-font-specification:DejaVuSans" transform="matrix(1 0 0 -1 106.2 697.9)" font-weight="400" font-size="18" font-family="DejaVu Sans"><tspan y="0" x="0">5</tspan></text></g></g><g clip-path="url(#w)" transform="matrix(1.33333 0 0 -1.33333 0 1121.3)"><path d="M135.8 714.9h46v-21.5h-46z" fill="#e0e0e0"/><g clip-path="url(#x)"><text style="-inkscape-font-specification:DejaVuSans" transform="matrix(1 0 0 -1 153 697.9)" font-weight="400" font-size="18" font-family="DejaVu Sans"><tspan y="0" x="0">6</tspan></text></g></g><g clip-path="url(#y)" transform="matrix(1.33333 0 0 -1.33333 0 1121.3)"><path d="M182.6 714.9h46.9v-21.5h-46.9z" fill="#f5923e"/><g clip-path="url(#z)"><text style="-inkscape-font-specification:DejaVuSans" transform="matrix(1 0 0 -1 202.8 697.9)" font-weight="400" font-size="18" font-family="DejaVu Sans"><tspan y="0" x="0">-</tspan></text></g></g><g clip-path="url(#A)" transform="matrix(1.33333 0 0 -1.33333 0 1121.3)"><path d="M42 692.6h46.1v-21.5H42z" fill="#e0e0e0"/><g clip-path="url(#B)"><text style="-inkscape-font-specification:DejaVuSans" transform="matrix(1 0 0 -1 59.3 675.6)" font-weight="400" font-size="18" font-family="DejaVu Sans"><tspan y="0" x="0">1</tspan></text></g></g><g clip-path="url(#C)" transform="matrix(1.33333 0 0 -1.33333 0 1121.3)"><path d="M88.9 692.6H135v-21.5H88.9z" fill="#e0e0e0"/><g clip-path="url(#D)"><text style="-inkscape-font-specification:DejaVuSans" transform="matrix(1 0 0 -1 106.2 675.6)" font-weight="400" font-size="18" font-family="DejaVu Sans"><tspan y="0" x="0">2</tspan></text></g></g><g clip-path="url(#E)" transform="matrix(1.33333 0 0 -1.33333 0 1121.3)"><path d="M135.8 692.6h46v-21.5h-46z" fill="#e0e0e0"/><g clip-path="url(#F)"><text style="-inkscape-font-specification:DejaVuSans" transform="matrix(1 0 0 -1 153 675.6)" font-weight="400" font-size="18" font-family="DejaVu Sans"><tspan y="0" x="0">3</tspan></text></g></g><g clip-path="url(#G)" transform="matrix(1.33333 0 0 -1.33333 0 1121.3)"><path d="M182.6 692.6h46.9v-21.5h-46.9z" fill="#f5923e"/><g clip-path="url(#H)"><text style="-inkscape-font-specification:DejaVuSans" transform="matrix(1 0 0 -1 198.5 675.6)" font-weight="400" font-size="18" font-family="DejaVu Sans"><tspan y="0" x="0">+</tspan></text></g></g><g clip-path="url(#I)" transform="matrix(1.33333 0 0 -1.33333 0 1121.3)"><path d="M42 670.4h93v-21.5H42z" fill="#e0e0e0"/><g clip-path="url(#J)"><text style="-inkscape-font-specification:DejaVuSans" transform="matrix(1 0 0 -1 82.8 653.4)" font-weight="400" font-size="18" font-family="DejaVu Sans"><tspan y="0" x="0">0</tspan></text></g></g><g clip-path="url(#K)" transform="matrix(1.33333 0 0 -1.33333 0 1121.3)"><path d="M135.8 670.4h46v-21.5h-46z" fill="#e0e0e0"/><g clip-path="url(#L)"><text style="-inkscape-font-specification:DejaVuSans" transform="matrix(1 0 0 -1 156 653.4)" font-weight="400" font-size="18" font-family="DejaVu Sans"><tspan y="0" x="0">.</tspan></text></g></g><g clip-path="url(#M)" transform="matrix(1.33333 0 0 -1.33333 0 1121.3)"><path d="M182.6 670.4h46.9v-21.5h-46.9z" fill="#f5923e"/><g clip-path="url(#N)"><text style="-inkscape-font-specification:DejaVuSans" transform="matrix(1 0 0 -1 198.5 653.4)" font-weight="400" font-size="18" font-family="DejaVu Sans"><tspan y="0" x="0">=</tspan></text></g></g><text style="-inkscape-font-specification:DejaVuSerif" transform="translate(24 36.7) scale(1.33333)" font-weight="400" font-size="10" font-family="DejaVu Serif"><tspan y="0" x="0 7.2199998 10.39 15.99 21.950001 25.139999 30.74 37.18 40.369999 46.330002 50.330002 56.360001 61.130001 64.300003 72.849998 76.040001 82.440002 88.839996 94.75 307.03751 313.47751 317.47751 321.47751 327.8775 333.01752 336.38751 339.7475 343.11752 346.2175 351.3475 354.7175 363.26752 366.45752 372.85751 379.25751 385.1575 389.16751 394.29752 397.4675 403.86752 407.0575 411.0575 417.4975 423.9375 430.33752 433.4975 436.69751 442.7175 446.08752 451.98752 457.61752 463.57751 473.0575 479.45752 482.64752 488.5575 491.91751 497.51752 503.47751 506.67752 512.27753 518.70752 521.89752 527.86749 531.86749 537.88751 542.66748 546.02753 549.22754 552.38751 555.5575">A calculator widgethttps://js-widgets.github.io/example-calculator/i...</tspan><tspan y="770.7" x="0 6.3600001 9.5299997 15.55 19.25 22.42 485.26251 491.6225 494.99252 501.35251 507.71252 511.07251 517.4325 523.79248 526.96252 530.13251 536.49249 542.85254 546.21252 552.57251">1 of 11/25/21, 21:15</tspan></text></svg>